<svg xmlns="http://www.w3.org/2000/svg" xmlns:xlink="http://www.w3.org/1999/xlink" width="1920" zoomAndPan="magnify" viewBox="0 0 1440 809.999993" height="1080" preserveAspectRatio="xMidYMid meet" version="1.0"><defs><g/><clipPath id="0ce78e4fec"><path d="M 460.085938 298.449219 L 711 298.449219 L 711 511 L 460.085938 511 Z M 460.085938 298.449219 " clip-rule="nonzero"/></clipPath></defs><rect x="-144" width="1728" fill="#ffffff" y="-80.999999" height="971.999992" fill-opacity="1"/><rect x="-144" width="1728" fill="#ffffff" y="-80.999999" height="971.999992" fill-opacity="1"/><g clip-path="url(#0ce78e4fec)"><path fill="#0a0909" d="M 502.828125 408.75 C 500.925781 410.96875 499.019531 413.140625 497.167969 415.355469 C 489.496094 424.53125 482.410156 434.121094 476.464844 444.519531 C 472.691406 451.117188 469.425781 457.949219 467.28125 465.269531 C 466.023438 469.574219 465.195312 473.949219 465.269531 478.460938 C 465.304688 480.511719 465.542969 482.53125 466.074219 484.511719 C 467.375 489.359375 470.199219 493.054688 474.542969 495.585938 C 477.648438 497.394531 481.03125 498.402344 484.550781 498.996094 C 489.679688 499.859375 494.832031 499.820312 499.996094 499.347656 C 511.867188 498.253906 523.203125 495 534.308594 490.839844 C 539.605469 488.851562 544.824219 486.667969 549.992188 484.359375 C 550.375 484.1875 550.746094 483.972656 551.183594 483.941406 C 551.773438 483.902344 552.242188 484.101562 552.511719 484.65625 C 552.773438 485.1875 552.636719 485.800781 552.132812 486.214844 C 551.902344 486.40625 551.617188 486.546875 551.34375 486.679688 C 539.261719 492.449219 526.796875 497.1875 513.804688 500.492188 C 507.824219 502.011719 501.769531 503.152344 495.597656 503.535156 C 489.324219 503.921875 483.113281 503.628906 477.089844 501.59375 C 475.921875 501.199219 474.777344 500.742188 473.671875 500.191406 C 466.261719 496.519531 462.078125 490.519531 460.894531 482.398438 C 460.078125 476.820312 460.792969 471.339844 462.164062 465.925781 C 463.921875 458.984375 466.71875 452.449219 470.03125 446.121094 C 475.1875 436.261719 481.457031 427.128906 488.292969 418.371094 C 491.609375 414.117188 495.066406 409.980469 498.632812 405.933594 C 498.761719 405.789062 498.875 405.628906 499.019531 405.503906 C 499.5 405.089844 499.449219 404.75 499.03125 404.273438 C 497 401.957031 494.980469 399.632812 493.011719 397.261719 C 485.347656 388.027344 478.285156 378.371094 472.351562 367.921875 C 468.464844 361.078125 465.105469 353.992188 462.867188 346.421875 C 461.21875 340.84375 460.195312 335.175781 460.675781 329.335938 C 461.40625 320.410156 465.507812 313.65625 473.667969 309.589844 C 475.5 308.675781 477.425781 308 479.40625 307.488281 C 484.574219 306.152344 489.832031 305.898438 495.128906 306.21875 C 504.265625 306.765625 513.097656 308.859375 521.808594 311.519531 C 531.914062 314.601562 541.710938 318.484375 551.234375 323.046875 C 551.582031 323.210938 551.945312 323.355469 552.222656 323.636719 C 552.640625 324.066406 552.75 324.621094 552.515625 325.121094 C 552.28125 325.621094 551.789062 325.894531 551.1875 325.839844 C 550.71875 325.796875 550.3125 325.558594 549.890625 325.375 C 542.003906 321.886719 534.027344 318.625 525.8125 315.976562 C 518.539062 313.632812 511.148438 311.804688 503.5625 310.820312 C 497.351562 310.019531 491.125 309.730469 484.898438 310.730469 C 481.683594 311.246094 478.574219 312.097656 475.664062 313.582031 C 469.753906 316.597656 466.445312 321.457031 465.535156 327.976562 C 464.828125 333.023438 465.539062 337.960938 466.820312 342.835938 C 468.675781 349.917969 471.675781 356.535156 475.167969 362.9375 C 480.5 372.703125 486.917969 381.734375 493.863281 390.40625 C 496.535156 393.742188 499.308594 397 502.136719 400.207031 C 502.382812 400.484375 502.667969 400.734375 502.925781 400.988281 C 503.28125 400.882812 503.441406 400.601562 503.644531 400.378906 C 529.519531 372.691406 558.90625 349.371094 591.503906 330.074219 C 606.410156 321.25 621.890625 313.582031 638.183594 307.617188 C 646.476562 304.578125 654.914062 302.046875 663.613281 300.441406 C 670.265625 299.210938 676.964844 298.523438 683.738281 298.960938 C 688.148438 299.246094 692.464844 300.007812 696.554688 301.742188 C 705.054688 305.347656 709.765625 311.773438 710.738281 320.9375 C 711.328125 326.503906 710.4375 331.914062 708.945312 337.25 C 706.863281 344.667969 703.65625 351.609375 699.90625 358.3125 C 693.882812 369.066406 686.648438 378.976562 678.792969 388.449219 C 674.363281 393.789062 669.730469 398.945312 664.933594 403.957031 C 664.773438 404.125 664.625 404.300781 664.453125 404.457031 C 664.125 404.746094 664.117188 405.019531 664.445312 405.320312 C 664.671875 405.527344 664.878906 405.757812 665.089844 405.980469 C 675.382812 416.800781 684.976562 428.191406 693.261719 440.636719 C 698.289062 448.179688 702.785156 456.015625 706.175781 464.445312 C 708.25 469.605469 709.875 474.890625 710.585938 480.425781 C 711.101562 484.429688 711.101562 488.421875 710.160156 492.367188 C 708.566406 499.058594 704.664062 503.964844 698.554688 507.113281 C 694.734375 509.082031 690.632812 510.078125 686.394531 510.574219 C 679.597656 511.371094 672.847656 510.867188 666.128906 509.773438 C 653.972656 507.796875 642.347656 503.988281 630.96875 499.386719 C 615.144531 492.988281 600.085938 485.085938 585.566406 476.144531 C 557.214844 458.683594 531.359375 438.101562 508.175781 414.195312 C 506.703125 412.671875 505.269531 411.113281 503.808594 409.578125 C 503.546875 409.304688 503.347656 408.957031 502.828125 408.75 Z M 660.683594 404.890625 C 660.328125 404.515625 660.042969 404.203125 659.75 403.902344 C 649.4375 393.277344 638.496094 383.328125 627.082031 373.898438 C 619.800781 367.886719 612.304688 362.15625 604.773438 356.464844 C 604.5 356.257812 604.222656 356.042969 603.96875 355.808594 C 603.78125 355.636719 603.734375 355.386719 603.890625 355.1875 C 604.027344 355.015625 604.253906 355.070312 604.425781 355.15625 C 604.664062 355.277344 604.894531 355.425781 605.117188 355.574219 C 606.371094 356.402344 607.632812 357.21875 608.867188 358.070312 C 627.683594 371.078125 645.082031 385.777344 661.207031 401.984375 C 661.476562 402.257812 661.753906 402.527344 662.015625 402.808594 C 662.246094 403.054688 662.457031 403.082031 662.6875 402.820312 C 662.839844 402.644531 663.003906 402.484375 663.164062 402.316406 C 669.4375 395.675781 675.4375 388.796875 681.050781 381.589844 C 687.878906 372.824219 694.140625 363.6875 699.226562 353.789062 C 702.558594 347.296875 705.367188 340.601562 706.882812 333.429688 C 707.832031 328.953125 708.261719 324.449219 707.46875 319.898438 C 706.335938 313.429688 702.914062 308.644531 697.007812 305.691406 C 695.105469 304.738281 693.105469 304.054688 691.035156 303.566406 C 685.453125 302.238281 679.804688 302.214844 674.136719 302.738281 C 667.863281 303.320312 661.722656 304.597656 655.65625 306.25 C 644.433594 309.308594 633.664062 313.558594 623.15625 318.492188 C 605.78125 326.648438 589.328125 336.394531 573.53125 347.261719 C 552.558594 361.6875 532.96875 377.78125 515.015625 395.839844 C 512.355469 398.519531 509.734375 401.238281 507.171875 404.011719 C 506.253906 405.003906 506.257812 404.785156 507.203125 405.804688 C 508.4375 407.128906 509.675781 408.453125 510.929688 409.753906 C 532.277344 431.90625 556 451.183594 581.734375 468.007812 C 597.394531 478.246094 613.671875 487.375 630.890625 494.757812 C 642.492188 499.730469 654.378906 503.84375 666.855469 506.050781 C 673.0625 507.148438 679.304688 507.714844 685.613281 507.105469 C 689.746094 506.710938 693.75 505.800781 697.457031 503.855469 C 702.402344 501.261719 705.613281 497.273438 707.03125 491.867188 C 707.789062 488.972656 708.003906 486.03125 707.816406 483.046875 C 707.476562 477.699219 706.160156 472.570312 704.332031 467.558594 C 701.445312 459.636719 697.496094 452.246094 693.011719 445.132812 C 684.371094 431.421875 674.070312 419.027344 662.972656 407.265625 C 662.375 406.636719 662.363281 406.644531 661.734375 407.261719 C 661.679688 407.3125 661.628906 407.371094 661.574219 407.425781 C 650.378906 418.761719 638.480469 429.3125 625.945312 439.140625 C 619.273438 444.371094 612.460938 449.40625 605.363281 454.050781 C 605.042969 454.261719 604.710938 454.460938 604.371094 454.632812 C 604.199219 454.71875 603.980469 454.726562 603.859375 454.527344 C 603.75 454.347656 603.792969 454.140625 603.941406 454 C 604.167969 453.789062 604.40625 453.59375 604.648438 453.40625 C 607.625 451.144531 610.609375 448.898438 613.574219 446.621094 C 629.914062 434.074219 645.457031 420.625 659.804688 405.820312 C 660.070312 405.546875 660.332031 405.265625 660.683594 404.890625 Z M 660.683594 404.890625 " fill-opacity="1" fill-rule="nonzero"/></g><g fill="#000000" fill-opacity="1"><g transform="translate(551.921169, 433.124998)"><g><path d="M 42.59375 1.390625 C 33.875 1.390625 26.847656 0.457031 21.515625 -1.40625 C 16.179688 -3.28125 12.125 -5.859375 9.34375 -9.140625 C 6.5625 -12.421875 4.691406 -16.203125 3.734375 -20.484375 L 32.4375 -20.484375 C 34.5625 -17.429688 37.945312 -15.90625 42.59375 -15.90625 C 47.226562 -15.90625 50.609375 -17.429688 52.734375 -20.484375 C 52.921875 -20.785156 53.015625 -21.054688 53.015625 -21.296875 C 53.015625 -22.097656 51.941406 -22.703125 49.796875 -23.109375 C 47.648438 -23.515625 44.453125 -23.820312 40.203125 -24.03125 C 34.847656 -24.269531 29.21875 -24.835938 23.3125 -25.734375 C 10.164062 -27.773438 3.59375 -33.0625 3.59375 -41.59375 C 3.59375 -42.3125 3.640625 -43.078125 3.734375 -43.890625 C 4.691406 -48.171875 6.5625 -51.953125 9.34375 -55.234375 C 12.125 -58.515625 16.179688 -61.085938 21.515625 -62.953125 C 26.847656 -64.828125 33.875 -65.765625 42.59375 -65.765625 C 51.300781 -65.765625 58.320312 -64.828125 63.65625 -62.953125 C 68.988281 -61.085938 73.046875 -58.515625 75.828125 -55.234375 C 78.609375 -51.953125 80.476562 -48.171875 81.4375 -43.890625 L 52.734375 -43.890625 C 50.609375 -46.941406 47.226562 -48.46875 42.59375 -48.46875 C 37.945312 -48.46875 34.5625 -46.941406 32.4375 -43.890625 C 32.28125 -43.648438 32.203125 -43.425781 32.203125 -43.21875 C 32.203125 -42.5 33.226562 -41.96875 35.28125 -41.625 C 37.332031 -41.28125 40.359375 -40.988281 44.359375 -40.75 C 48.359375 -40.507812 52.617188 -40.117188 57.140625 -39.578125 C 61.660156 -39.035156 65.890625 -38.097656 69.828125 -36.765625 C 73.765625 -35.429688 76.84375 -33.460938 79.0625 -30.859375 C 80.800781 -28.859375 81.671875 -26.3125 81.671875 -23.21875 C 81.671875 -22.351562 81.59375 -21.441406 81.4375 -20.484375 C 80.476562 -16.203125 78.609375 -12.421875 75.828125 -9.140625 C 73.046875 -5.859375 68.988281 -3.28125 63.65625 -1.40625 C 58.320312 0.457031 51.300781 1.390625 42.59375 1.390625 Z M 42.59375 1.390625 "/></g></g></g><g fill="#000000" fill-opacity="1"><g transform="translate(630.886921, 433.124998)"><g><path d="M 108.265625 0 L 80.859375 0 L 74.796875 -10.5625 L 34.140625 -10.5625 L 28.078125 0 L 0.671875 0 L 41.90625 -64.421875 L 67.03125 -64.421875 Z M 65.671875 -26.5 L 54.484375 -46.046875 L 43.265625 -26.5 Z M 65.671875 -26.5 "/></g></g></g><g fill="#000000" fill-opacity="1"><g transform="translate(739.813212, 433.124998)"><g><path d="M 53.40625 0 L 7.1875 0 L 7.1875 -64.421875 L 54.40625 -64.421875 C 62.789062 -64.421875 69.691406 -64.035156 75.109375 -63.265625 C 80.523438 -62.503906 84.703125 -61.304688 87.640625 -59.671875 C 90.578125 -58.046875 92.566406 -55.972656 93.609375 -53.453125 C 94.660156 -50.941406 95.1875 -47.929688 95.1875 -44.421875 C 95.101562 -41.671875 94.347656 -39.390625 92.921875 -37.578125 C 91.492188 -35.765625 89.828125 -34.414062 87.921875 -33.53125 C 86.023438 -32.644531 84.359375 -32.203125 82.921875 -32.203125 C 84.328125 -32.203125 85.972656 -31.925781 87.859375 -31.375 C 89.753906 -30.820312 91.59375 -30.019531 93.375 -28.96875 C 95.15625 -27.925781 96.632812 -26.65625 97.8125 -25.15625 C 99 -23.65625 99.59375 -21.945312 99.59375 -20.03125 C 99.59375 -17.519531 99.300781 -15.210938 98.71875 -13.109375 C 98.132812 -11.015625 96.960938 -9.160156 95.203125 -7.546875 C 93.453125 -5.929688 90.867188 -4.5625 87.453125 -3.4375 C 84.046875 -2.3125 79.578125 -1.457031 74.046875 -0.875 C 68.523438 -0.289062 61.644531 0 53.40625 0 Z M 51.890625 -37.734375 C 55.835938 -37.734375 58.894531 -37.925781 61.0625 -38.3125 C 63.238281 -38.707031 64.742188 -39.300781 65.578125 -40.09375 C 66.421875 -40.882812 66.84375 -41.894531 66.84375 -43.125 C 66.84375 -44.382812 66.421875 -45.410156 65.578125 -46.203125 C 64.742188 -46.992188 63.238281 -47.578125 61.0625 -47.953125 C 58.894531 -48.328125 55.835938 -48.515625 51.890625 -48.515625 L 34.234375 -48.515625 L 34.234375 -37.734375 Z M 51.890625 -15.90625 C 55.929688 -15.90625 59.207031 -16.007812 61.71875 -16.21875 C 64.238281 -16.425781 66.082031 -16.90625 67.25 -17.65625 C 68.414062 -18.40625 69 -19.617188 69 -21.296875 C 69 -22.972656 68.414062 -24.191406 67.25 -24.953125 C 66.082031 -25.710938 64.238281 -26.191406 61.71875 -26.390625 C 59.207031 -26.585938 55.929688 -26.6875 51.890625 -26.6875 L 34.234375 -26.6875 L 34.234375 -15.90625 Z M 51.890625 -15.90625 "/></g></g></g><g fill="#000000" fill-opacity="1"><g transform="translate(842.990002, 433.124998)"><g><path d="M 129.734375 0 L 102.6875 0 L 102.6875 -41.109375 L 78.53125 0 L 58.359375 0 L 34.234375 -41.109375 L 34.234375 0 L 7.1875 0 L 7.1875 -64.46875 L 39.3125 -64.46875 L 68.46875 -18.421875 L 97.578125 -64.46875 L 129.734375 -64.46875 Z M 129.734375 0 "/></g></g></g></svg>